<svg width="300" height="300" viewBox="0 0 300 300" fill="none" xmlns="http://www.w3.org/2000/svg">
<rect width="300" height="300" fill="#C7F229"/>
<line x1="142.924" y1="58.0761" x2="213.635" y2="128.787" stroke="#1C2233" stroke-width="20"/>
<line x1="86.3553" y1="114.645" x2="157.066" y2="185.355" stroke="#1C2233" stroke-width="20"/>
<line x1="86.3553" y1="128.787" x2="157.066" y2="58.0762" stroke="#1C2233" stroke-width="20"/>
<line y1="-10" x2="100" y2="-10" transform="matrix(-0.707107 -0.707107 -0.707107 0.707107 206.563 192.426)" stroke="#1C2233" stroke-width="20"/>
<line y1="-10" x2="100" y2="-10" transform="matrix(-0.707107 -0.707107 -0.707107 0.707107 149.995 248.995)" stroke="#1C2233" stroke-width="20"/>
<line y1="-10" x2="100" y2="-10" transform="matrix(0.707107 -0.707107 -0.707107 -0.707107 135.853 234.853)" stroke="#1C2233" stroke-width="20"/>
<line y1="-10" x2="50" y2="-10" transform="matrix(0 1 1 0 138.995 40)" stroke="#1C2233" stroke-width="20"/>
<line y1="-10" x2="50" y2="-10" transform="matrix(0 1 1 0 180.995 40)" stroke="#1C2233" stroke-width="20"/>
<line y1="-10" x2="50" y2="-10" transform="matrix(0 1 1 0 138.995 210)" stroke="#1C2233" stroke-width="20"/>
<line y1="-10" x2="50" y2="-10" transform="matrix(0 1 1 0 180.995 210)" stroke="#1C2233" stroke-width="20"/>
</svg>
