<svg width="198" height="220" viewBox="0 0 198 220" fill="none" xmlns="http://www.w3.org/2000/svg">
<line x1="91.9239" y1="18.0761" x2="162.635" y2="88.7868" stroke="#1C2233" stroke-width="20"/>
<line x1="35.3553" y1="74.6448" x2="106.066" y2="145.355" stroke="#1C2233" stroke-width="20"/>
<line x1="35.3553" y1="88.7868" x2="106.066" y2="18.0762" stroke="#1C2233" stroke-width="20"/>
<line y1="-10" x2="100" y2="-10" transform="matrix(-0.707107 -0.707107 -0.707107 0.707107 155.563 152.426)" stroke="#1C2233" stroke-width="20"/>
<line y1="-10" x2="100" y2="-10" transform="matrix(-0.707107 -0.707107 -0.707107 0.707107 98.9949 208.995)" stroke="#1C2233" stroke-width="20"/>
<line y1="-10" x2="100" y2="-10" transform="matrix(0.707107 -0.707107 -0.707107 -0.707107 84.8528 194.853)" stroke="#1C2233" stroke-width="20"/>
<line y1="-10" x2="50" y2="-10" transform="matrix(0 1 1 0 87.9949 0)" stroke="#1C2233" stroke-width="20"/>
<line y1="-10" x2="50" y2="-10" transform="matrix(0 1 1 0 129.995 0)" stroke="#1C2233" stroke-width="20"/>
<line y1="-10" x2="50" y2="-10" transform="matrix(0 1 1 0 87.9949 170)" stroke="#1C2233" stroke-width="20"/>
<line y1="-10" x2="50" y2="-10" transform="matrix(0 1 1 0 129.995 170)" stroke="#1C2233" stroke-width="20"/>
</svg>
